<svg aria-roledescription="er" viewBox="0 0 477.93359375 1300" style="max-width: 477.934px; background-color: white;" xmlns:xlink="http://www.w3.org/1999/xlink" xmlns="http://www.w3.org/2000/svg" width="100%" id="mermaid-0"><style>#mermaid-0{font-family:"trebuchet ms",verdana,arial,sans-serif;font-size:16px;fill:#000000;}#mermaid-0 .error-icon{fill:#552222;}#mermaid-0 .error-text{fill:#552222;stroke:#552222;}#mermaid-0 .edge-thickness-normal{stroke-width:2px;}#mermaid-0 .edge-thickness-thick{stroke-width:3.5px;}#mermaid-0 .edge-pattern-solid{stroke-dasharray:0;}#mermaid-0 .edge-pattern-dashed{stroke-dasharray:3;}#mermaid-0 .edge-pattern-dotted{stroke-dasharray:2;}#mermaid-0 .marker{fill:#000000;stroke:#000000;}#mermaid-0 .marker.cross{stroke:#000000;}#mermaid-0 svg{font-family:"trebuchet ms",verdana,arial,sans-serif;font-size:16px;}#mermaid-0 .entityBox{fill:#cde498;stroke:#13540c;}#mermaid-0 .attributeBoxOdd{fill:#ffffff;stroke:#13540c;}#mermaid-0 .attributeBoxEven{fill:#f2f2f2;stroke:#13540c;}#mermaid-0 .relationshipLabelBox{fill:hsl(78.1578947368, 58.4615384615%, 84.5098039216%);opacity:0.7;background-color:hsl(78.1578947368, 58.4615384615%, 84.5098039216%);}#mermaid-0 .relationshipLabelBox rect{opacity:0.5;}#mermaid-0 .relationshipLine{stroke:#000000;}#mermaid-0 .entityTitleText{text-anchor:middle;font-size:18px;fill:#000000;}#mermaid-0 :root{--mermaid-font-family:"trebuchet ms",verdana,arial,sans-serif;}</style><g/><defs><marker orient="auto" markerHeight="18" markerWidth="18" refY="9" refX="0" id="ONLY_ONE_START"><path d="M9,0 L9,18 M15,0 L15,18" fill="none" stroke="gray"/></marker></defs><defs><marker orient="auto" markerHeight="18" markerWidth="18" refY="9" refX="18" id="ONLY_ONE_END"><path d="M3,0 L3,18 M9,0 L9,18" fill="none" stroke="gray"/></marker></defs><defs><marker orient="auto" markerHeight="18" markerWidth="30" refY="9" refX="0" id="ZERO_OR_ONE_START"><circle r="6" cy="9" cx="21" fill="white" stroke="gray"/><path d="M9,0 L9,18" fill="none" stroke="gray"/></marker></defs><defs><marker orient="auto" markerHeight="18" markerWidth="30" refY="9" refX="30" id="ZERO_OR_ONE_END"><circle r="6" cy="9" cx="9" fill="white" stroke="gray"/><path d="M21,0 L21,18" fill="none" stroke="gray"/></marker></defs><defs><marker orient="auto" markerHeight="36" markerWidth="45" refY="18" refX="18" id="ONE_OR_MORE_START"><path d="M0,18 Q 18,0 36,18 Q 18,36 0,18 M42,9 L42,27" fill="none" stroke="gray"/></marker></defs><defs><marker orient="auto" markerHeight="36" markerWidth="45" refY="18" refX="27" id="ONE_OR_MORE_END"><path d="M3,9 L3,27 M9,18 Q27,0 45,18 Q27,36 9,18" fill="none" stroke="gray"/></marker></defs><defs><marker orient="auto" markerHeight="36" markerWidth="57" refY="18" refX="18" id="ZERO_OR_MORE_START"><circle r="6" cy="18" cx="48" fill="white" stroke="gray"/><path d="M0,18 Q18,0 36,18 Q18,36 0,18" fill="none" stroke="gray"/></marker></defs><defs><marker orient="auto" markerHeight="36" markerWidth="57" refY="18" refX="39" id="ZERO_OR_MORE_END"><circle r="6" cy="18" cx="9" fill="white" stroke="gray"/><path d="M21,18 Q39,0 57,18 Q39,36 21,18" fill="none" stroke="gray"/></marker></defs><path style="stroke: gray; fill: none;" marker-start="url(#ZERO_OR_MORE_START)" marker-end="url(#ONLY_ONE_END)" d="M362.49609375,454L362.49609375,462.3333333333333C362.49609375,470.6666666666667,362.49609375,487.3333333333333,362.49609375,504C362.49609375,520.6666666666666,362.49609375,537.3333333333334,362.49609375,545.6666666666666L362.49609375,554" class="er relationshipLine"/><path style="stroke: gray; fill: none;" marker-start="url(#ZERO_OR_MORE_START)" marker-end="url(#ONLY_ONE_END)" d="M362.49609375,143L362.49609375,156.83333333333334C362.49609375,170.66666666666666,362.49609375,198.33333333333334,362.49609375,220.5C362.49609375,242.66666666666666,362.49609375,259.3333333333333,362.49609375,267.6666666666667L362.49609375,276" class="er relationshipLine"/><path style="stroke: gray; fill: none;" marker-start="url(#ZERO_OR_MORE_START)" marker-end="url(#ONLY_ONE_END)" d="M362.49609375,710L362.49609375,718.3333333333334C362.49609375,726.6666666666666,362.49609375,743.3333333333334,362.49609375,760C362.49609375,776.6666666666666,362.49609375,793.3333333333334,362.49609375,801.6666666666666L362.49609375,810" class="er relationshipLine"/><path style="stroke: gray; fill: none;" marker-start="url(#ZERO_OR_MORE_START)" marker-end="url(#ONLY_ONE_END)" d="M362.49609375,900L362.49609375,908.3333333333334C362.49609375,916.6666666666666,362.49609375,933.3333333333334,362.49609375,950C362.49609375,966.6666666666666,362.49609375,983.3333333333334,362.49609375,991.6666666666666L362.49609375,1000" class="er relationshipLine"/><path style="stroke: gray; fill: none;" marker-start="url(#ZERO_OR_MORE_START)" marker-end="url(#ONLY_ONE_END)" d="M362.49609375,1090L362.49609375,1098.3333333333333C362.49609375,1106.6666666666667,362.49609375,1123.3333333333333,362.49609375,1140C362.49609375,1156.6666666666667,362.49609375,1173.3333333333333,362.49609375,1181.6666666666667L362.49609375,1190" class="er relationshipLine"/><g transform="translate(20,20 )" id="entity-tblvet-196b4772-a98f-409f-bee2-191b221dcb97"><rect height="156" width="176.8359375" y="0" x="0" class="er entityBox"/><text style="dominant-baseline: middle; text-anchor: middle; font-size: 12px;" transform="translate(88.41796875,12)" y="0" x="0" id="text-entity-tblvet-196b4772-a98f-409f-bee2-191b221dcb97" class="er entityLabel">tbl_vet</text><rect height="22" width="36.5234375" y="24" x="0" class="er attributeBoxOdd"/><text style="dominant-baseline: middle; font-size: 10.2px;" transform="translate(5,35)" y="0" x="0" id="text-entity-tblvet-196b4772-a98f-409f-bee2-191b221dcb97-attr-1-type" class="er entityLabel">Int</text><rect height="22" width="71.96875" y="24" x="36.5234375" class="er attributeBoxOdd"/><text style="dominant-baseline: middle; font-size: 10.2px;" transform="translate(41.5234375,35)" y="0" x="0" id="text-entity-tblvet-196b4772-a98f-409f-bee2-191b221dcb97-attr-1-name" class="er entityLabel">id</text><rect height="22" width="21.5625" y="24" x="108.4921875" class="er attributeBoxOdd"/><text style="dominant-baseline: middle; font-size: 10.2px;" transform="translate(113.4921875,35)" y="0" x="0" id="text-entity-tblvet-196b4772-a98f-409f-bee2-191b221dcb97-attr-1-key" class="er entityLabel">PK</text><rect height="22" width="46.78125" y="24" x="130.0546875" class="er attributeBoxOdd"/><text style="dominant-baseline: middle; font-size: 10.2px;" transform="translate(135.0546875,35)" y="0" x="0" id="text-entity-tblvet-196b4772-a98f-409f-bee2-191b221dcb97-attr-1-comment" class="er entityLabel"/><rect height="22" width="36.5234375" y="46" x="0" class="er attributeBoxEven"/><text style="dominant-baseline: middle; font-size: 10.2px;" transform="translate(5,57)" y="0" x="0" id="text-entity-tblvet-196b4772-a98f-409f-bee2-191b221dcb97-attr-2-type" class="er entityLabel">String</text><rect height="22" width="71.96875" y="46" x="36.5234375" class="er attributeBoxEven"/><text style="dominant-baseline: middle; font-size: 10.2px;" transform="translate(41.5234375,57)" y="0" x="0" id="text-entity-tblvet-196b4772-a98f-409f-bee2-191b221dcb97-attr-2-name" class="er entityLabel">name</text><rect height="22" width="21.5625" y="46" x="108.4921875" class="er attributeBoxEven"/><text style="dominant-baseline: middle; font-size: 10.2px;" transform="translate(113.4921875,57)" y="0" x="0" id="text-entity-tblvet-196b4772-a98f-409f-bee2-191b221dcb97-attr-2-key" class="er entityLabel"/><rect height="22" width="46.78125" y="46" x="130.0546875" class="er attributeBoxEven"/><text style="dominant-baseline: middle; font-size: 10.2px;" transform="translate(135.0546875,57)" y="0" x="0" id="text-entity-tblvet-196b4772-a98f-409f-bee2-191b221dcb97-attr-2-comment" class="er entityLabel"/><rect height="22" width="36.5234375" y="68" x="0" class="er attributeBoxOdd"/><text style="dominant-baseline: middle; font-size: 10.2px;" transform="translate(5,79)" y="0" x="0" id="text-entity-tblvet-196b4772-a98f-409f-bee2-191b221dcb97-attr-3-type" class="er entityLabel">String</text><rect height="22" width="71.96875" y="68" x="36.5234375" class="er attributeBoxOdd"/><text style="dominant-baseline: middle; font-size: 10.2px;" transform="translate(41.5234375,79)" y="0" x="0" id="text-entity-tblvet-196b4772-a98f-409f-bee2-191b221dcb97-attr-3-name" class="er entityLabel">cpf</text><rect height="22" width="21.5625" y="68" x="108.4921875" class="er attributeBoxOdd"/><text style="dominant-baseline: middle; font-size: 10.2px;" transform="translate(113.4921875,79)" y="0" x="0" id="text-entity-tblvet-196b4772-a98f-409f-bee2-191b221dcb97-attr-3-key" class="er entityLabel"/><rect height="22" width="46.78125" y="68" x="130.0546875" class="er attributeBoxOdd"/><text style="dominant-baseline: middle; font-size: 10.2px;" transform="translate(135.0546875,79)" y="0" x="0" id="text-entity-tblvet-196b4772-a98f-409f-bee2-191b221dcb97-attr-3-comment" class="er entityLabel"/><rect height="22" width="36.5234375" y="90" x="0" class="er attributeBoxEven"/><text style="dominant-baseline: middle; font-size: 10.2px;" transform="translate(5,101)" y="0" x="0" id="text-entity-tblvet-196b4772-a98f-409f-bee2-191b221dcb97-attr-4-type" class="er entityLabel">String</text><rect height="22" width="71.96875" y="90" x="36.5234375" class="er attributeBoxEven"/><text style="dominant-baseline: middle; font-size: 10.2px;" transform="translate(41.5234375,101)" y="0" x="0" id="text-entity-tblvet-196b4772-a98f-409f-bee2-191b221dcb97-attr-4-name" class="er entityLabel">rg</text><rect height="22" width="21.5625" y="90" x="108.4921875" class="er attributeBoxEven"/><text style="dominant-baseline: middle; font-size: 10.2px;" transform="translate(113.4921875,101)" y="0" x="0" id="text-entity-tblvet-196b4772-a98f-409f-bee2-191b221dcb97-attr-4-key" class="er entityLabel"/><rect height="22" width="46.78125" y="90" x="130.0546875" class="er attributeBoxEven"/><text style="dominant-baseline: middle; font-size: 10.2px;" transform="translate(135.0546875,101)" y="0" x="0" id="text-entity-tblvet-196b4772-a98f-409f-bee2-191b221dcb97-attr-4-comment" class="er entityLabel"/><rect height="22" width="36.5234375" y="112" x="0" class="er attributeBoxOdd"/><text style="dominant-baseline: middle; font-size: 10.2px;" transform="translate(5,123)" y="0" x="0" id="text-entity-tblvet-196b4772-a98f-409f-bee2-191b221dcb97-attr-5-type" class="er entityLabel">String</text><rect height="22" width="71.96875" y="112" x="36.5234375" class="er attributeBoxOdd"/><text style="dominant-baseline: middle; font-size: 10.2px;" transform="translate(41.5234375,123)" y="0" x="0" id="text-entity-tblvet-196b4772-a98f-409f-bee2-191b221dcb97-attr-5-name" class="er entityLabel">profile_photo</text><rect height="22" width="21.5625" y="112" x="108.4921875" class="er attributeBoxOdd"/><text style="dominant-baseline: middle; font-size: 10.2px;" transform="translate(113.4921875,123)" y="0" x="0" id="text-entity-tblvet-196b4772-a98f-409f-bee2-191b221dcb97-attr-5-key" class="er entityLabel"/><rect height="22" width="46.78125" y="112" x="130.0546875" class="er attributeBoxOdd"/><text style="dominant-baseline: middle; font-size: 10.2px;" transform="translate(135.0546875,123)" y="0" x="0" id="text-entity-tblvet-196b4772-a98f-409f-bee2-191b221dcb97-attr-5-comment" class="er entityLabel">nullable</text><rect height="22" width="36.5234375" y="134" x="0" class="er attributeBoxEven"/><text style="dominant-baseline: middle; font-size: 10.2px;" transform="translate(5,145)" y="0" x="0" id="text-entity-tblvet-196b4772-a98f-409f-bee2-191b221dcb97-attr-6-type" class="er entityLabel">String</text><rect height="22" width="71.96875" y="134" x="36.5234375" class="er attributeBoxEven"/><text style="dominant-baseline: middle; font-size: 10.2px;" transform="translate(41.5234375,145)" y="0" x="0" id="text-entity-tblvet-196b4772-a98f-409f-bee2-191b221dcb97-attr-6-name" class="er entityLabel">password</text><rect height="22" width="21.5625" y="134" x="108.4921875" class="er attributeBoxEven"/><text style="dominant-baseline: middle; font-size: 10.2px;" transform="translate(113.4921875,145)" y="0" x="0" id="text-entity-tblvet-196b4772-a98f-409f-bee2-191b221dcb97-attr-6-key" class="er entityLabel"/><rect height="22" width="46.78125" y="134" x="130.0546875" class="er attributeBoxEven"/><text style="dominant-baseline: middle; font-size: 10.2px;" transform="translate(135.0546875,145)" y="0" x="0" id="text-entity-tblvet-196b4772-a98f-409f-bee2-191b221dcb97-attr-6-comment" class="er entityLabel"/></g><g transform="translate(274.078125,276 )" id="entity-tblpetowner-4e20eccd-a446-4dc5-93c6-ff6ecba81ec0"><rect height="178" width="176.8359375" y="0" x="0" class="er entityBox"/><text style="dominant-baseline: middle; text-anchor: middle; font-size: 12px;" transform="translate(88.41796875,12)" y="0" x="0" id="text-entity-tblpetowner-4e20eccd-a446-4dc5-93c6-ff6ecba81ec0" class="er entityLabel">tbl_pet_owner</text><rect height="22" width="36.5234375" y="24" x="0" class="er attributeBoxOdd"/><text style="dominant-baseline: middle; font-size: 10.2px;" transform="translate(5,35)" y="0" x="0" id="text-entity-tblpetowner-4e20eccd-a446-4dc5-93c6-ff6ecba81ec0-attr-1-type" class="er entityLabel">Int</text><rect height="22" width="71.96875" y="24" x="36.5234375" class="er attributeBoxOdd"/><text style="dominant-baseline: middle; font-size: 10.2px;" transform="translate(41.5234375,35)" y="0" x="0" id="text-entity-tblpetowner-4e20eccd-a446-4dc5-93c6-ff6ecba81ec0-attr-1-name" class="er entityLabel">id</text><rect height="22" width="21.5625" y="24" x="108.4921875" class="er attributeBoxOdd"/><text style="dominant-baseline: middle; font-size: 10.2px;" transform="translate(113.4921875,35)" y="0" x="0" id="text-entity-tblpetowner-4e20eccd-a446-4dc5-93c6-ff6ecba81ec0-attr-1-key" class="er entityLabel">PK</text><rect height="22" width="46.78125" y="24" x="130.0546875" class="er attributeBoxOdd"/><text style="dominant-baseline: middle; font-size: 10.2px;" transform="translate(135.0546875,35)" y="0" x="0" id="text-entity-tblpetowner-4e20eccd-a446-4dc5-93c6-ff6ecba81ec0-attr-1-comment" class="er entityLabel"/><rect height="22" width="36.5234375" y="46" x="0" class="er attributeBoxEven"/><text style="dominant-baseline: middle; font-size: 10.2px;" transform="translate(5,57)" y="0" x="0" id="text-entity-tblpetowner-4e20eccd-a446-4dc5-93c6-ff6ecba81ec0-attr-2-type" class="er entityLabel">String</text><rect height="22" width="71.96875" y="46" x="36.5234375" class="er attributeBoxEven"/><text style="dominant-baseline: middle; font-size: 10.2px;" transform="translate(41.5234375,57)" y="0" x="0" id="text-entity-tblpetowner-4e20eccd-a446-4dc5-93c6-ff6ecba81ec0-attr-2-name" class="er entityLabel">name</text><rect height="22" width="21.5625" y="46" x="108.4921875" class="er attributeBoxEven"/><text style="dominant-baseline: middle; font-size: 10.2px;" transform="translate(113.4921875,57)" y="0" x="0" id="text-entity-tblpetowner-4e20eccd-a446-4dc5-93c6-ff6ecba81ec0-attr-2-key" class="er entityLabel"/><rect height="22" width="46.78125" y="46" x="130.0546875" class="er attributeBoxEven"/><text style="dominant-baseline: middle; font-size: 10.2px;" transform="translate(135.0546875,57)" y="0" x="0" id="text-entity-tblpetowner-4e20eccd-a446-4dc5-93c6-ff6ecba81ec0-attr-2-comment" class="er entityLabel"/><rect height="22" width="36.5234375" y="68" x="0" class="er attributeBoxOdd"/><text style="dominant-baseline: middle; font-size: 10.2px;" transform="translate(5,79)" y="0" x="0" id="text-entity-tblpetowner-4e20eccd-a446-4dc5-93c6-ff6ecba81ec0-attr-3-type" class="er entityLabel">String</text><rect height="22" width="71.96875" y="68" x="36.5234375" class="er attributeBoxOdd"/><text style="dominant-baseline: middle; font-size: 10.2px;" transform="translate(41.5234375,79)" y="0" x="0" id="text-entity-tblpetowner-4e20eccd-a446-4dc5-93c6-ff6ecba81ec0-attr-3-name" class="er entityLabel">cpf</text><rect height="22" width="21.5625" y="68" x="108.4921875" class="er attributeBoxOdd"/><text style="dominant-baseline: middle; font-size: 10.2px;" transform="translate(113.4921875,79)" y="0" x="0" id="text-entity-tblpetowner-4e20eccd-a446-4dc5-93c6-ff6ecba81ec0-attr-3-key" class="er entityLabel"/><rect height="22" width="46.78125" y="68" x="130.0546875" class="er attributeBoxOdd"/><text style="dominant-baseline: middle; font-size: 10.2px;" transform="translate(135.0546875,79)" y="0" x="0" id="text-entity-tblpetowner-4e20eccd-a446-4dc5-93c6-ff6ecba81ec0-attr-3-comment" class="er entityLabel"/><rect height="22" width="36.5234375" y="90" x="0" class="er attributeBoxEven"/><text style="dominant-baseline: middle; font-size: 10.2px;" transform="translate(5,101)" y="0" x="0" id="text-entity-tblpetowner-4e20eccd-a446-4dc5-93c6-ff6ecba81ec0-attr-4-type" class="er entityLabel">String</text><rect height="22" width="71.96875" y="90" x="36.5234375" class="er attributeBoxEven"/><text style="dominant-baseline: middle; font-size: 10.2px;" transform="translate(41.5234375,101)" y="0" x="0" id="text-entity-tblpetowner-4e20eccd-a446-4dc5-93c6-ff6ecba81ec0-attr-4-name" class="er entityLabel">rg</text><rect height="22" width="21.5625" y="90" x="108.4921875" class="er attributeBoxEven"/><text style="dominant-baseline: middle; font-size: 10.2px;" transform="translate(113.4921875,101)" y="0" x="0" id="text-entity-tblpetowner-4e20eccd-a446-4dc5-93c6-ff6ecba81ec0-attr-4-key" class="er entityLabel"/><rect height="22" width="46.78125" y="90" x="130.0546875" class="er attributeBoxEven"/><text style="dominant-baseline: middle; font-size: 10.2px;" transform="translate(135.0546875,101)" y="0" x="0" id="text-entity-tblpetowner-4e20eccd-a446-4dc5-93c6-ff6ecba81ec0-attr-4-comment" class="er entityLabel"/><rect height="22" width="36.5234375" y="112" x="0" class="er attributeBoxOdd"/><text style="dominant-baseline: middle; font-size: 10.2px;" transform="translate(5,123)" y="0" x="0" id="text-entity-tblpetowner-4e20eccd-a446-4dc5-93c6-ff6ecba81ec0-attr-5-type" class="er entityLabel">String</text><rect height="22" width="71.96875" y="112" x="36.5234375" class="er attributeBoxOdd"/><text style="dominant-baseline: middle; font-size: 10.2px;" transform="translate(41.5234375,123)" y="0" x="0" id="text-entity-tblpetowner-4e20eccd-a446-4dc5-93c6-ff6ecba81ec0-attr-5-name" class="er entityLabel">profile_photo</text><rect height="22" width="21.5625" y="112" x="108.4921875" class="er attributeBoxOdd"/><text style="dominant-baseline: middle; font-size: 10.2px;" transform="translate(113.4921875,123)" y="0" x="0" id="text-entity-tblpetowner-4e20eccd-a446-4dc5-93c6-ff6ecba81ec0-attr-5-key" class="er entityLabel"/><rect height="22" width="46.78125" y="112" x="130.0546875" class="er attributeBoxOdd"/><text style="dominant-baseline: middle; font-size: 10.2px;" transform="translate(135.0546875,123)" y="0" x="0" id="text-entity-tblpetowner-4e20eccd-a446-4dc5-93c6-ff6ecba81ec0-attr-5-comment" class="er entityLabel">nullable</text><rect height="22" width="36.5234375" y="134" x="0" class="er attributeBoxEven"/><text style="dominant-baseline: middle; font-size: 10.2px;" transform="translate(5,145)" y="0" x="0" id="text-entity-tblpetowner-4e20eccd-a446-4dc5-93c6-ff6ecba81ec0-attr-6-type" class="er entityLabel">String</text><rect height="22" width="71.96875" y="134" x="36.5234375" class="er attributeBoxEven"/><text style="dominant-baseline: middle; font-size: 10.2px;" transform="translate(41.5234375,145)" y="0" x="0" id="text-entity-tblpetowner-4e20eccd-a446-4dc5-93c6-ff6ecba81ec0-attr-6-name" class="er entityLabel">password</text><rect height="22" width="21.5625" y="134" x="108.4921875" class="er attributeBoxEven"/><text style="dominant-baseline: middle; font-size: 10.2px;" transform="translate(113.4921875,145)" y="0" x="0" id="text-entity-tblpetowner-4e20eccd-a446-4dc5-93c6-ff6ecba81ec0-attr-6-key" class="er entityLabel"/><rect height="22" width="46.78125" y="134" x="130.0546875" class="er attributeBoxEven"/><text style="dominant-baseline: middle; font-size: 10.2px;" transform="translate(135.0546875,145)" y="0" x="0" id="text-entity-tblpetowner-4e20eccd-a446-4dc5-93c6-ff6ecba81ec0-attr-6-comment" class="er entityLabel"/><rect height="22" width="36.5234375" y="156" x="0" class="er attributeBoxOdd"/><text style="dominant-baseline: middle; font-size: 10.2px;" transform="translate(5,167)" y="0" x="0" id="text-entity-tblpetowner-4e20eccd-a446-4dc5-93c6-ff6ecba81ec0-attr-7-type" class="er entityLabel">Int</text><rect height="22" width="71.96875" y="156" x="36.5234375" class="er attributeBoxOdd"/><text style="dominant-baseline: middle; font-size: 10.2px;" transform="translate(41.5234375,167)" y="0" x="0" id="text-entity-tblpetowner-4e20eccd-a446-4dc5-93c6-ff6ecba81ec0-attr-7-name" class="er entityLabel">address_id</text><rect height="22" width="21.5625" y="156" x="108.4921875" class="er attributeBoxOdd"/><text style="dominant-baseline: middle; font-size: 10.2px;" transform="translate(113.4921875,167)" y="0" x="0" id="text-entity-tblpetowner-4e20eccd-a446-4dc5-93c6-ff6ecba81ec0-attr-7-key" class="er entityLabel"/><rect height="22" width="46.78125" y="156" x="130.0546875" class="er attributeBoxOdd"/><text style="dominant-baseline: middle; font-size: 10.2px;" transform="translate(135.0546875,167)" y="0" x="0" id="text-entity-tblpetowner-4e20eccd-a446-4dc5-93c6-ff6ecba81ec0-attr-7-comment" class="er entityLabel"/></g><g transform="translate(296.8359375,53 )" id="entity-tblphonenumber-ee2539c3-468d-4ecf-83d8-6cae09002b51"><rect height="90" width="131.3203125" y="0" x="0" class="er entityBox"/><text style="dominant-baseline: middle; text-anchor: middle; font-size: 12px;" transform="translate(65.66015625,12)" y="0" x="0" id="text-entity-tblphonenumber-ee2539c3-468d-4ecf-83d8-6cae09002b51" class="er entityLabel">tbl_phone_number</text><rect height="22" width="36.684895833333336" y="24" x="0" class="er attributeBoxOdd"/><text style="dominant-baseline: middle; font-size: 10.2px;" transform="translate(5,35)" y="0" x="0" id="text-entity-tblphonenumber-ee2539c3-468d-4ecf-83d8-6cae09002b51-attr-1-type" class="er entityLabel">Int</text><rect height="22" width="72.91145833333333" y="24" x="36.684895833333336" class="er attributeBoxOdd"/><text style="dominant-baseline: middle; font-size: 10.2px;" transform="translate(41.684895833333336,35)" y="0" x="0" id="text-entity-tblphonenumber-ee2539c3-468d-4ecf-83d8-6cae09002b51-attr-1-name" class="er entityLabel">id</text><rect height="22" width="21.723958333333332" y="24" x="109.59635416666666" class="er attributeBoxOdd"/><text style="dominant-baseline: middle; font-size: 10.2px;" transform="translate(114.59635416666666,35)" y="0" x="0" id="text-entity-tblphonenumber-ee2539c3-468d-4ecf-83d8-6cae09002b51-attr-1-key" class="er entityLabel">PK</text><rect height="22" width="36.684895833333336" y="46" x="0" class="er attributeBoxEven"/><text style="dominant-baseline: middle; font-size: 10.2px;" transform="translate(5,57)" y="0" x="0" id="text-entity-tblphonenumber-ee2539c3-468d-4ecf-83d8-6cae09002b51-attr-2-type" class="er entityLabel">String</text><rect height="22" width="72.91145833333333" y="46" x="36.684895833333336" class="er attributeBoxEven"/><text style="dominant-baseline: middle; font-size: 10.2px;" transform="translate(41.684895833333336,57)" y="0" x="0" id="text-entity-tblphonenumber-ee2539c3-468d-4ecf-83d8-6cae09002b51-attr-2-name" class="er entityLabel">number</text><rect height="22" width="21.723958333333332" y="46" x="109.59635416666666" class="er attributeBoxEven"/><text style="dominant-baseline: middle; font-size: 10.2px;" transform="translate(114.59635416666666,57)" y="0" x="0" id="text-entity-tblphonenumber-ee2539c3-468d-4ecf-83d8-6cae09002b51-attr-2-key" class="er entityLabel"/><rect height="22" width="36.684895833333336" y="68" x="0" class="er attributeBoxOdd"/><text style="dominant-baseline: middle; font-size: 10.2px;" transform="translate(5,79)" y="0" x="0" id="text-entity-tblphonenumber-ee2539c3-468d-4ecf-83d8-6cae09002b51-attr-3-type" class="er entityLabel">Int</text><rect height="22" width="72.91145833333333" y="68" x="36.684895833333336" class="er attributeBoxOdd"/><text style="dominant-baseline: middle; font-size: 10.2px;" transform="translate(41.684895833333336,79)" y="0" x="0" id="text-entity-tblphonenumber-ee2539c3-468d-4ecf-83d8-6cae09002b51-attr-3-name" class="er entityLabel">pet_owner_id</text><rect height="22" width="21.723958333333332" y="68" x="109.59635416666666" class="er attributeBoxOdd"/><text style="dominant-baseline: middle; font-size: 10.2px;" transform="translate(114.59635416666666,79)" y="0" x="0" id="text-entity-tblphonenumber-ee2539c3-468d-4ecf-83d8-6cae09002b51-attr-3-key" class="er entityLabel"/></g><g transform="translate(267.05859375,554 )" id="entity-tbladdress-5e5a41b7-2149-4520-a3e3-cfd8192c0f4a"><rect height="156" width="190.875" y="0" x="0" class="er entityBox"/><text style="dominant-baseline: middle; text-anchor: middle; font-size: 12px;" transform="translate(95.4375,12)" y="0" x="0" id="text-entity-tbladdress-5e5a41b7-2149-4520-a3e3-cfd8192c0f4a" class="er entityLabel">tbl_address</text><rect height="22" width="36.5234375" y="24" x="0" class="er attributeBoxOdd"/><text style="dominant-baseline: middle; font-size: 10.2px;" transform="translate(5,35)" y="0" x="0" id="text-entity-tbladdress-5e5a41b7-2149-4520-a3e3-cfd8192c0f4a-attr-1-type" class="er entityLabel">Int</text><rect height="22" width="86.0078125" y="24" x="36.5234375" class="er attributeBoxOdd"/><text style="dominant-baseline: middle; font-size: 10.2px;" transform="translate(41.5234375,35)" y="0" x="0" id="text-entity-tbladdress-5e5a41b7-2149-4520-a3e3-cfd8192c0f4a-attr-1-name" class="er entityLabel">id</text><rect height="22" width="21.5625" y="24" x="122.53125" class="er attributeBoxOdd"/><text style="dominant-baseline: middle; font-size: 10.2px;" transform="translate(127.53125,35)" y="0" x="0" id="text-entity-tbladdress-5e5a41b7-2149-4520-a3e3-cfd8192c0f4a-attr-1-key" class="er entityLabel">PK</text><rect height="22" width="46.78125" y="24" x="144.09375" class="er attributeBoxOdd"/><text style="dominant-baseline: middle; font-size: 10.2px;" transform="translate(149.09375,35)" y="0" x="0" id="text-entity-tbladdress-5e5a41b7-2149-4520-a3e3-cfd8192c0f4a-attr-1-comment" class="er entityLabel"/><rect height="22" width="36.5234375" y="46" x="0" class="er attributeBoxEven"/><text style="dominant-baseline: middle; font-size: 10.2px;" transform="translate(5,57)" y="0" x="0" id="text-entity-tbladdress-5e5a41b7-2149-4520-a3e3-cfd8192c0f4a-attr-2-type" class="er entityLabel">String</text><rect height="22" width="86.0078125" y="46" x="36.5234375" class="er attributeBoxEven"/><text style="dominant-baseline: middle; font-size: 10.2px;" transform="translate(41.5234375,57)" y="0" x="0" id="text-entity-tbladdress-5e5a41b7-2149-4520-a3e3-cfd8192c0f4a-attr-2-name" class="er entityLabel">cep</text><rect height="22" width="21.5625" y="46" x="122.53125" class="er attributeBoxEven"/><text style="dominant-baseline: middle; font-size: 10.2px;" transform="translate(127.53125,57)" y="0" x="0" id="text-entity-tbladdress-5e5a41b7-2149-4520-a3e3-cfd8192c0f4a-attr-2-key" class="er entityLabel"/><rect height="22" width="46.78125" y="46" x="144.09375" class="er attributeBoxEven"/><text style="dominant-baseline: middle; font-size: 10.2px;" transform="translate(149.09375,57)" y="0" x="0" id="text-entity-tbladdress-5e5a41b7-2149-4520-a3e3-cfd8192c0f4a-attr-2-comment" class="er entityLabel"/><rect height="22" width="36.5234375" y="68" x="0" class="er attributeBoxOdd"/><text style="dominant-baseline: middle; font-size: 10.2px;" transform="translate(5,79)" y="0" x="0" id="text-entity-tbladdress-5e5a41b7-2149-4520-a3e3-cfd8192c0f4a-attr-3-type" class="er entityLabel">String</text><rect height="22" width="86.0078125" y="68" x="36.5234375" class="er attributeBoxOdd"/><text style="dominant-baseline: middle; font-size: 10.2px;" transform="translate(41.5234375,79)" y="0" x="0" id="text-entity-tbladdress-5e5a41b7-2149-4520-a3e3-cfd8192c0f4a-attr-3-name" class="er entityLabel">street</text><rect height="22" width="21.5625" y="68" x="122.53125" class="er attributeBoxOdd"/><text style="dominant-baseline: middle; font-size: 10.2px;" transform="translate(127.53125,79)" y="0" x="0" id="text-entity-tbladdress-5e5a41b7-2149-4520-a3e3-cfd8192c0f4a-attr-3-key" class="er entityLabel"/><rect height="22" width="46.78125" y="68" x="144.09375" class="er attributeBoxOdd"/><text style="dominant-baseline: middle; font-size: 10.2px;" transform="translate(149.09375,79)" y="0" x="0" id="text-entity-tbladdress-5e5a41b7-2149-4520-a3e3-cfd8192c0f4a-attr-3-comment" class="er entityLabel"/><rect height="22" width="36.5234375" y="90" x="0" class="er attributeBoxEven"/><text style="dominant-baseline: middle; font-size: 10.2px;" transform="translate(5,101)" y="0" x="0" id="text-entity-tbladdress-5e5a41b7-2149-4520-a3e3-cfd8192c0f4a-attr-4-type" class="er entityLabel">String</text><rect height="22" width="86.0078125" y="90" x="36.5234375" class="er attributeBoxEven"/><text style="dominant-baseline: middle; font-size: 10.2px;" transform="translate(41.5234375,101)" y="0" x="0" id="text-entity-tbladdress-5e5a41b7-2149-4520-a3e3-cfd8192c0f4a-attr-4-name" class="er entityLabel">complement</text><rect height="22" width="21.5625" y="90" x="122.53125" class="er attributeBoxEven"/><text style="dominant-baseline: middle; font-size: 10.2px;" transform="translate(127.53125,101)" y="0" x="0" id="text-entity-tbladdress-5e5a41b7-2149-4520-a3e3-cfd8192c0f4a-attr-4-key" class="er entityLabel"/><rect height="22" width="46.78125" y="90" x="144.09375" class="er attributeBoxEven"/><text style="dominant-baseline: middle; font-size: 10.2px;" transform="translate(149.09375,101)" y="0" x="0" id="text-entity-tbladdress-5e5a41b7-2149-4520-a3e3-cfd8192c0f4a-attr-4-comment" class="er entityLabel">nullable</text><rect height="22" width="36.5234375" y="112" x="0" class="er attributeBoxOdd"/><text style="dominant-baseline: middle; font-size: 10.2px;" transform="translate(5,123)" y="0" x="0" id="text-entity-tbladdress-5e5a41b7-2149-4520-a3e3-cfd8192c0f4a-attr-5-type" class="er entityLabel">String</text><rect height="22" width="86.0078125" y="112" x="36.5234375" class="er attributeBoxOdd"/><text style="dominant-baseline: middle; font-size: 10.2px;" transform="translate(41.5234375,123)" y="0" x="0" id="text-entity-tbladdress-5e5a41b7-2149-4520-a3e3-cfd8192c0f4a-attr-5-name" class="er entityLabel">number</text><rect height="22" width="21.5625" y="112" x="122.53125" class="er attributeBoxOdd"/><text style="dominant-baseline: middle; font-size: 10.2px;" transform="translate(127.53125,123)" y="0" x="0" id="text-entity-tbladdress-5e5a41b7-2149-4520-a3e3-cfd8192c0f4a-attr-5-key" class="er entityLabel"/><rect height="22" width="46.78125" y="112" x="144.09375" class="er attributeBoxOdd"/><text style="dominant-baseline: middle; font-size: 10.2px;" transform="translate(149.09375,123)" y="0" x="0" id="text-entity-tbladdress-5e5a41b7-2149-4520-a3e3-cfd8192c0f4a-attr-5-comment" class="er entityLabel"/><rect height="22" width="36.5234375" y="134" x="0" class="er attributeBoxEven"/><text style="dominant-baseline: middle; font-size: 10.2px;" transform="translate(5,145)" y="0" x="0" id="text-entity-tbladdress-5e5a41b7-2149-4520-a3e3-cfd8192c0f4a-attr-6-type" class="er entityLabel">Int</text><rect height="22" width="86.0078125" y="134" x="36.5234375" class="er attributeBoxEven"/><text style="dominant-baseline: middle; font-size: 10.2px;" transform="translate(41.5234375,145)" y="0" x="0" id="text-entity-tbladdress-5e5a41b7-2149-4520-a3e3-cfd8192c0f4a-attr-6-name" class="er entityLabel">neighborhood_id</text><rect height="22" width="21.5625" y="134" x="122.53125" class="er attributeBoxEven"/><text style="dominant-baseline: middle; font-size: 10.2px;" transform="translate(127.53125,145)" y="0" x="0" id="text-entity-tbladdress-5e5a41b7-2149-4520-a3e3-cfd8192c0f4a-attr-6-key" class="er entityLabel"/><rect height="22" width="46.78125" y="134" x="144.09375" class="er attributeBoxEven"/><text style="dominant-baseline: middle; font-size: 10.2px;" transform="translate(149.09375,145)" y="0" x="0" id="text-entity-tbladdress-5e5a41b7-2149-4520-a3e3-cfd8192c0f4a-attr-6-comment" class="er entityLabel"/></g><g transform="translate(300.3515625,810 )" id="entity-tblneighborhood-46f9d1c5-1a0d-482a-a6e1-29bd80aba641"><rect height="90" width="124.2890625" y="0" x="0" class="er entityBox"/><text style="dominant-baseline: middle; text-anchor: middle; font-size: 12px;" transform="translate(62.14453125,12)" y="0" x="0" id="text-entity-tblneighborhood-46f9d1c5-1a0d-482a-a6e1-29bd80aba641" class="er entityLabel">tbl_neighborhood</text><rect height="22" width="44.932291666666664" y="24" x="0" class="er attributeBoxOdd"/><text style="dominant-baseline: middle; font-size: 10.2px;" transform="translate(5,35)" y="0" x="0" id="text-entity-tblneighborhood-46f9d1c5-1a0d-482a-a6e1-29bd80aba641-attr-1-type" class="er entityLabel">Int</text><rect height="22" width="49.385416666666664" y="24" x="44.932291666666664" class="er attributeBoxOdd"/><text style="dominant-baseline: middle; font-size: 10.2px;" transform="translate(49.932291666666664,35)" y="0" x="0" id="text-entity-tblneighborhood-46f9d1c5-1a0d-482a-a6e1-29bd80aba641-attr-1-name" class="er entityLabel">id</text><rect height="22" width="29.971354166666664" y="24" x="94.31770833333333" class="er attributeBoxOdd"/><text style="dominant-baseline: middle; font-size: 10.2px;" transform="translate(99.31770833333333,35)" y="0" x="0" id="text-entity-tblneighborhood-46f9d1c5-1a0d-482a-a6e1-29bd80aba641-attr-1-key" class="er entityLabel">PK</text><rect height="22" width="44.932291666666664" y="46" x="0" class="er attributeBoxEven"/><text style="dominant-baseline: middle; font-size: 10.2px;" transform="translate(5,57)" y="0" x="0" id="text-entity-tblneighborhood-46f9d1c5-1a0d-482a-a6e1-29bd80aba641-attr-2-type" class="er entityLabel">String</text><rect height="22" width="49.385416666666664" y="46" x="44.932291666666664" class="er attributeBoxEven"/><text style="dominant-baseline: middle; font-size: 10.2px;" transform="translate(49.932291666666664,57)" y="0" x="0" id="text-entity-tblneighborhood-46f9d1c5-1a0d-482a-a6e1-29bd80aba641-attr-2-name" class="er entityLabel">name</text><rect height="22" width="29.971354166666664" y="46" x="94.31770833333333" class="er attributeBoxEven"/><text style="dominant-baseline: middle; font-size: 10.2px;" transform="translate(99.31770833333333,57)" y="0" x="0" id="text-entity-tblneighborhood-46f9d1c5-1a0d-482a-a6e1-29bd80aba641-attr-2-key" class="er entityLabel"/><rect height="22" width="44.932291666666664" y="68" x="0" class="er attributeBoxOdd"/><text style="dominant-baseline: middle; font-size: 10.2px;" transform="translate(5,79)" y="0" x="0" id="text-entity-tblneighborhood-46f9d1c5-1a0d-482a-a6e1-29bd80aba641-attr-3-type" class="er entityLabel">Int</text><rect height="22" width="49.385416666666664" y="68" x="44.932291666666664" class="er attributeBoxOdd"/><text style="dominant-baseline: middle; font-size: 10.2px;" transform="translate(49.932291666666664,79)" y="0" x="0" id="text-entity-tblneighborhood-46f9d1c5-1a0d-482a-a6e1-29bd80aba641-attr-3-name" class="er entityLabel">city_id</text><rect height="22" width="29.971354166666664" y="68" x="94.31770833333333" class="er attributeBoxOdd"/><text style="dominant-baseline: middle; font-size: 10.2px;" transform="translate(99.31770833333333,79)" y="0" x="0" id="text-entity-tblneighborhood-46f9d1c5-1a0d-482a-a6e1-29bd80aba641-attr-3-key" class="er entityLabel"/></g><g transform="translate(309.91015625,1000 )" id="entity-tblcity-a18de450-5a18-45e3-8383-5e7e15ca4e01"><rect height="90" width="105.171875" y="0" x="0" class="er entityBox"/><text style="dominant-baseline: middle; text-anchor: middle; font-size: 12px;" transform="translate(52.5859375,12)" y="0" x="0" id="text-entity-tblcity-a18de450-5a18-45e3-8383-5e7e15ca4e01" class="er entityLabel">tbl_city</text><rect height="22" width="36.5234375" y="24" x="0" class="er attributeBoxOdd"/><text style="dominant-baseline: middle; font-size: 10.2px;" transform="translate(5,35)" y="0" x="0" id="text-entity-tblcity-a18de450-5a18-45e3-8383-5e7e15ca4e01-attr-1-type" class="er entityLabel">Int</text><rect height="22" width="47.0859375" y="24" x="36.5234375" class="er attributeBoxOdd"/><text style="dominant-baseline: middle; font-size: 10.2px;" transform="translate(41.5234375,35)" y="0" x="0" id="text-entity-tblcity-a18de450-5a18-45e3-8383-5e7e15ca4e01-attr-1-name" class="er entityLabel">id</text><rect height="22" width="21.5625" y="24" x="83.609375" class="er attributeBoxOdd"/><text style="dominant-baseline: middle; font-size: 10.2px;" transform="translate(88.609375,35)" y="0" x="0" id="text-entity-tblcity-a18de450-5a18-45e3-8383-5e7e15ca4e01-attr-1-key" class="er entityLabel">PK</text><rect height="22" width="36.5234375" y="46" x="0" class="er attributeBoxEven"/><text style="dominant-baseline: middle; font-size: 10.2px;" transform="translate(5,57)" y="0" x="0" id="text-entity-tblcity-a18de450-5a18-45e3-8383-5e7e15ca4e01-attr-2-type" class="er entityLabel">String</text><rect height="22" width="47.0859375" y="46" x="36.5234375" class="er attributeBoxEven"/><text style="dominant-baseline: middle; font-size: 10.2px;" transform="translate(41.5234375,57)" y="0" x="0" id="text-entity-tblcity-a18de450-5a18-45e3-8383-5e7e15ca4e01-attr-2-name" class="er entityLabel">name</text><rect height="22" width="21.5625" y="46" x="83.609375" class="er attributeBoxEven"/><text style="dominant-baseline: middle; font-size: 10.2px;" transform="translate(88.609375,57)" y="0" x="0" id="text-entity-tblcity-a18de450-5a18-45e3-8383-5e7e15ca4e01-attr-2-key" class="er entityLabel"/><rect height="22" width="36.5234375" y="68" x="0" class="er attributeBoxOdd"/><text style="dominant-baseline: middle; font-size: 10.2px;" transform="translate(5,79)" y="0" x="0" id="text-entity-tblcity-a18de450-5a18-45e3-8383-5e7e15ca4e01-attr-3-type" class="er entityLabel">Int</text><rect height="22" width="47.0859375" y="68" x="36.5234375" class="er attributeBoxOdd"/><text style="dominant-baseline: middle; font-size: 10.2px;" transform="translate(41.5234375,79)" y="0" x="0" id="text-entity-tblcity-a18de450-5a18-45e3-8383-5e7e15ca4e01-attr-3-name" class="er entityLabel">state_id</text><rect height="22" width="21.5625" y="68" x="83.609375" class="er attributeBoxOdd"/><text style="dominant-baseline: middle; font-size: 10.2px;" transform="translate(88.609375,79)" y="0" x="0" id="text-entity-tblcity-a18de450-5a18-45e3-8383-5e7e15ca4e01-attr-3-key" class="er entityLabel"/></g><g transform="translate(312.49609375,1190 )" id="entity-tblstate-44cb9fe9-74e7-4110-af6a-d24b4569e97b"><rect height="90" width="100" y="0" x="0" class="er entityBox"/><text style="dominant-baseline: middle; text-anchor: middle; font-size: 12px;" transform="translate(50,12)" y="0" x="0" id="text-entity-tblstate-44cb9fe9-74e7-4110-af6a-d24b4569e97b" class="er entityLabel">tbl_state</text><rect height="22" width="36.880208333333336" y="24" x="0" class="er attributeBoxOdd"/><text style="dominant-baseline: middle; font-size: 10.2px;" transform="translate(5,35)" y="0" x="0" id="text-entity-tblstate-44cb9fe9-74e7-4110-af6a-d24b4569e97b-attr-1-type" class="er entityLabel">Int</text><rect height="22" width="41.200520833333336" y="24" x="36.880208333333336" class="er attributeBoxOdd"/><text style="dominant-baseline: middle; font-size: 10.2px;" transform="translate(41.880208333333336,35)" y="0" x="0" id="text-entity-tblstate-44cb9fe9-74e7-4110-af6a-d24b4569e97b-attr-1-name" class="er entityLabel">id</text><rect height="22" width="21.919270833333332" y="24" x="78.08072916666667" class="er attributeBoxOdd"/><text style="dominant-baseline: middle; font-size: 10.2px;" transform="translate(83.08072916666667,35)" y="0" x="0" id="text-entity-tblstate-44cb9fe9-74e7-4110-af6a-d24b4569e97b-attr-1-key" class="er entityLabel">PK</text><rect height="22" width="36.880208333333336" y="46" x="0" class="er attributeBoxEven"/><text style="dominant-baseline: middle; font-size: 10.2px;" transform="translate(5,57)" y="0" x="0" id="text-entity-tblstate-44cb9fe9-74e7-4110-af6a-d24b4569e97b-attr-2-type" class="er entityLabel">String</text><rect height="22" width="41.200520833333336" y="46" x="36.880208333333336" class="er attributeBoxEven"/><text style="dominant-baseline: middle; font-size: 10.2px;" transform="translate(41.880208333333336,57)" y="0" x="0" id="text-entity-tblstate-44cb9fe9-74e7-4110-af6a-d24b4569e97b-attr-2-name" class="er entityLabel">name</text><rect height="22" width="21.919270833333332" y="46" x="78.08072916666667" class="er attributeBoxEven"/><text style="dominant-baseline: middle; font-size: 10.2px;" transform="translate(83.08072916666667,57)" y="0" x="0" id="text-entity-tblstate-44cb9fe9-74e7-4110-af6a-d24b4569e97b-attr-2-key" class="er entityLabel"/><rect height="22" width="36.880208333333336" y="68" x="0" class="er attributeBoxOdd"/><text style="dominant-baseline: middle; font-size: 10.2px;" transform="translate(5,79)" y="0" x="0" id="text-entity-tblstate-44cb9fe9-74e7-4110-af6a-d24b4569e97b-attr-3-type" class="er entityLabel">String</text><rect height="22" width="41.200520833333336" y="68" x="36.880208333333336" class="er attributeBoxOdd"/><text style="dominant-baseline: middle; font-size: 10.2px;" transform="translate(41.880208333333336,79)" y="0" x="0" id="text-entity-tblstate-44cb9fe9-74e7-4110-af6a-d24b4569e97b-attr-3-name" class="er entityLabel">initials</text><rect height="22" width="21.919270833333332" y="68" x="78.08072916666667" class="er attributeBoxOdd"/><text style="dominant-baseline: middle; font-size: 10.2px;" transform="translate(83.08072916666667,79)" y="0" x="0" id="text-entity-tblstate-44cb9fe9-74e7-4110-af6a-d24b4569e97b-attr-3-key" class="er entityLabel"/></g><rect height="14" width="40.6015625" y="497" x="342.1953125" class="er relationshipLabelBox"/><text style="text-anchor: middle; dominant-baseline: middle; font-size: 12px;" y="504" x="362.49609375" id="rel1" class="er relationshipLabel">address</text><rect height="14" width="52.7734375" y="202.5" x="336.109375" class="er relationshipLabelBox"/><text style="text-anchor: middle; dominant-baseline: middle; font-size: 12px;" y="209.5" x="362.49609375" id="rel2" class="er relationshipLabel">petOwner</text><rect height="14" width="73.015625" y="753" x="325.98828125" class="er relationshipLabelBox"/><text style="text-anchor: middle; dominant-baseline: middle; font-size: 12px;" y="760" x="362.49609375" id="rel3" class="er relationshipLabel">neighborhood</text><rect height="14" width="20.0390625" y="943" x="352.4765625" class="er relationshipLabelBox"/><text style="text-anchor: middle; dominant-baseline: middle; font-size: 12px;" y="950" x="362.49609375" id="rel4" class="er relationshipLabel">city</text><rect height="14" width="27.2265625" y="1133" x="348.8828125" class="er relationshipLabelBox"/><text style="text-anchor: middle; dominant-baseline: middle; font-size: 12px;" y="1140" x="362.49609375" id="rel5" class="er relationshipLabel">state</text></svg>